# xmcd
#
# Track frame offsets: 
#        150
#        19022
#        35289
#        50931
#        69167
#        80630
#
# Disc length: 1374 seconds
#
# Revision: 1
# Processed by: cddbd v1.5.2PL0 Copyright (c) Steve Scherf et al.
# Submitted via: ExactAudioCopy v0.99pb5
#
DISCID=47055c06
DTITLE=Lady Antebellum - A Merry Little Christmas
DYEAR=2010
DGENRE=Christmas
TTITLE0=Have Yourself a Merry Little Christmas
TTITLE1=All I Want for Christmas Is You
TTITLE2=Blue Christmas
TTITLE3=On This Winter's Night
TTITLE4=Let It Snow, Let It Snow, Let It Snow
TTITLE5=Silver Bells
EXTD=
EXTT0=
EXTT1=
EXTT2=
EXTT3=
EXTT4=
EXTT5=
PLAYORDER=
